<svg xmlns="http://www.w3.org/2000/svg" height="32px" width="32px" fill="#b20969" viewBox="0 0 512 512" x="0px" y="0px"><g><path d="M30,312h2.118A18.081,18.081,0,0,0,32,314v12a17.923,17.923,0,0,0,5.035,12.454c-.448.41-.89.827-1.322,1.259A39.984,39.984,0,0,0,32.013,392,40.033,40.033,0,0,0,24,416a8,8,0,0,0-7.761,9.94l5.017,20.067A65.9,65.9,0,0,0,85.285,496H451.25a8,8,0,0,0,7.979-7.409l14.959-202.01a94.879,94.879,0,0,1,1.826-12.706,92.9,92.9,0,0,1,3.545-12.312,248.211,248.211,0,0,0,4.473-156.134l-1.12-3.73A8,8,0,0,0,475.25,96H441.63l44.391-50.732a8,8,0,0,0-1.96-12.161l-27.161-16a8,8,0,0,0-10.171,1.729l-60.839,72A8,8,0,0,0,384,96H299.25a8,8,0,0,0-7.662,5.7l-1.12,3.732A247.952,247.952,0,0,0,280.007,176H280a8,8,0,0,0-8,8v8H256V176a8,8,0,0,0-8-8H216a8,8,0,0,0-8,8v42.015A81.907,81.907,0,0,0,190,216H98a82.093,82.093,0,0,0-82,82A14.015,14.015,0,0,0,30,312ZM202.715,480H85.285a49.93,49.93,0,0,1-48.508-37.874L34.246,432H251.668a8.06,8.06,0,0,0,1.947.558l-2.392,9.568A49.93,49.93,0,0,1,202.715,480ZM64,344H78.686l13.657,13.657a8,8,0,1,0,11.314-11.314L101.314,344h17.372l13.657,13.657a8,8,0,1,0,11.314-11.314L141.314,344H152a24,24,0,0,0,48,0h24a24.011,24.011,0,0,1,23.54,28.688c-.006.026-.011.052-.017.077l-.016.074-.014.062a23.5,23.5,0,0,1-3.544,8.434,39.955,39.955,0,0,0-39.943.029c-.031-.018-.064-.033-.1-.052l-.177-.1a39.938,39.938,0,0,0-39.733.15,39.948,39.948,0,0,0-40,0,39.948,39.948,0,0,0-40,0,39.954,39.954,0,0,0-39.946-.033A23.99,23.99,0,0,1,64,344ZM48,326V314a2,2,0,0,1,2-2H238a2,2,0,0,1,2,2v12a2,2,0,0,1-2,2H200a7.906,7.906,0,0,0-.819.042A16.005,16.005,0,0,0,184,344a8,8,0,0,1-16,0,16.005,16.005,0,0,0-15.181-15.958A7.906,7.906,0,0,0,152,328H50A2,2,0,0,1,48,326Zm.125,72A23.966,23.966,0,0,1,64,392a23.7,23.7,0,0,1,14.991,5.268,8,8,0,0,0,10.018,0,23.964,23.964,0,0,1,29.982,0,8,8,0,0,0,10.018,0,23.964,23.964,0,0,1,29.982,0,8,8,0,0,0,10.018,0,23.981,23.981,0,0,1,26.71-2.213c.108.07.219.137.333.2a22.069,22.069,0,0,1,2.921,2,8,8,0,0,0,10.036.015A23.7,23.7,0,0,1,224,392a23.949,23.949,0,0,1,15.851,5.975,25.872,25.872,0,0,1,2.341,2.37A23.97,23.97,0,0,1,248,416H40A24.052,24.052,0,0,1,48.125,398Zm416.4-141.9a109.308,109.308,0,0,0-4.155,14.432,111.357,111.357,0,0,0-2.136,14.862L443.82,480H432V192h45.99A231.86,231.86,0,0,1,464.522,256.1ZM469.29,112a231.362,231.362,0,0,1,9.2,64H432V112ZM454.6,34.318,467.625,42,420.37,96h-17.9ZM400,112h16v64H400Zm5.878,170.573A8,8,0,0,0,400,280V192h16V480H392.666l15.309-191.362A8,8,0,0,0,405.878,282.573ZM305.211,112H384v64H296.007A231.916,231.916,0,0,1,305.211,112ZM352,216v-8a8,8,0,0,0-8-8H320v-8h64v32a8,8,0,0,0-8-8Zm16,16v52.068A119.9,119.9,0,0,1,352,294.2V232Zm-32-16v85.2a119.866,119.866,0,0,1-16,4.429V216Zm-48-16v-8h16V307.787a121.862,121.862,0,0,1-16,0Zm-32,8h16v97.629c-.674-.137-1.349-.273-2.02-.422A13.9,13.9,0,0,0,272,298a81.555,81.555,0,0,0-16-48.593Zm23,115,.147.016.062.007a137.1,137.1,0,0,0,33.587,0l.055-.006L313,323a136.044,136.044,0,0,0,34-8.839l.058-.025.123-.052A135.554,135.554,0,0,0,378.76,296h12.574l-14.72,184H245.822a65.852,65.852,0,0,0,20.512-32.488,55.993,55.993,0,1,0-4.352-92.031,40.1,40.1,0,0,0-11.031-17.011,17.913,17.913,0,0,0,5.007-11.651c.028-.269.042-8.776.042-8.776A136.152,136.152,0,0,0,279,323Zm-8.693,96.08A8,8,0,0,0,264,416a39.99,39.99,0,0,0-7.362-23.12q.231-1.3.544-2.558a39.358,39.358,0,0,0,5.6-12.587,39.995,39.995,0,1,1,7.749,53.1l1.225-4.9A8,8,0,0,0,270.306,419.077ZM224,184h16v49.074a82.03,82.03,0,0,0-16-9.663ZM98,232h92a66.078,66.078,0,0,1,65.97,64H32.03A66.078,66.078,0,0,1,98,232Z"/><path d="M101.657,250.343a8,8,0,0,0-11.314,11.314l16,16a8,8,0,1,0,11.314-11.314Z"/><path d="M141.657,250.343a8,8,0,0,0-11.314,11.314l16,16a8,8,0,1,0,11.314-11.314Z"/><path d="M181.657,250.343a8,8,0,0,0-11.314,11.314l16,16a8,8,0,1,0,11.314-11.314Z"/></g></svg>
