<svg height='32' width='32'  fill="#fff" xmlns="http://www.w3.org/2000/svg" xmlns:xlink="http://www.w3.org/1999/xlink" version="1.1" x="0px" y="0px" viewBox="0 0 100 100" enable-background="new 0 0 100 100" xml:space="preserve"><g><path d="M85.621,72.499c-0.618-2.189-1.941-3.977-3.158-5.833c-0.325-0.493-0.69-0.989-0.702-1.611   c-0.032-1.781-0.002-3.562-0.115-5.344c-0.09-1.384,0.073-2.786-0.045-4.166c-0.14-1.585,0.167-2.897,1.549-3.825   c0.036-0.023,0.06-0.063,0.094-0.093c0.209-0.174,0.285-0.409,0.209-0.654c-0.157-0.499-0.089-1.005-0.103-1.509   c0.021-0.035,0.039-0.07,0.058-0.106c-0.019,0.01-0.038,0.018-0.058,0.027c-0.041-1.505-0.083-3.013-0.123-4.519   c-0.002,0-0.002,0-0.003-0.002c-0.004-0.306-0.044-0.616-0.004-0.916c0.126-0.957-0.142-1.683-1.017-2.201   c-0.323-0.192-0.681-0.465-0.715-0.958c-0.077-1.104-0.093-1.104-1.181-1.431c-0.229-0.069-0.456-0.141-0.685-0.211   c-0.033-0.029-0.068-0.046-0.103-0.062c0.033-0.006,0.067-0.011,0.103-0.018c0.143-0.288,0.083-0.598,0.084-0.898   c0.009-1.143,0.003-1.143-1.119-1.058c-0.427,0.039-0.58-0.114-0.591-0.581c-0.045-2.233-0.139-4.464-0.216-6.695   c0.04-0.932-0.157-1.832-0.393-2.723c-0.701-2.654-2.043-4.984-3.63-7.193c-0.888-1.233-1.89-2.377-2.949-3.452   c-0.81-0.823-1.785-1.486-2.746-2.145c-4.161-2.853-8.498-5.243-13.737-5.285C53.9,9.031,53.69,8.853,53.701,8.389   c0.023-1.013,0.012-2.027,0.005-3.041c-0.003-0.184,0.074-0.491-0.179-0.497c-0.473-0.011-1.008-0.288-1.405,0.215   c-0.083,0.673-0.057,1.351-0.057,2.027c-0.002,5.367,0,10.732-0.006,16.098c0,0.299,0.079,0.619-0.124,0.896   c-0.233,0.167-0.503,0.12-0.756,0.108c-1.034-0.047-2.076,0.132-3.105-0.1c-0.211-0.271-0.13-0.59-0.132-0.891   c-0.042-6.046,0.072-12.092-0.063-18.139c-0.176-0.381-0.526-0.222-0.813-0.263c-0.578-0.083-0.834,0.099-0.788,0.744   c0.06,0.811,0.015,1.63,0.014,2.444c0,1.039,0,1.058-1.013,1.041c-0.773-0.013-1.536,0.077-2.289,0.212   c-3.548,0.635-6.694,2.226-9.696,4.141c-1.464,0.933-2.938,1.89-4.148,3.127c-2.14,2.188-4.002,4.608-5.333,7.398   c-0.895,1.876-1.573,3.811-1.594,5.922c-0.077,2.232-0.171,4.463-0.216,6.694c-0.01,0.468-0.161,0.622-0.589,0.582   c-0.26-0.024-0.523-0.029-0.777-0.079c-0.213-0.043-0.356-0.027-0.342,0.223c0.033,0.604-0.096,1.216,0.083,1.812   c0.032,0.008,0.064,0.013,0.097,0.02c-0.032,0.016-0.064,0.035-0.097,0.06c-0.498,0.16-0.993,0.329-1.493,0.476   c-0.268,0.079-0.429,0.217-0.376,0.509c0.163,0.899-0.347,1.415-1.02,1.863c-0.5,0.334-0.791,0.772-0.712,1.429   c0.056,0.474,0.003,0.96,0,1.441c-0.001,0.001-0.001,0.001-0.002,0.002c-0.042,1.506-0.082,3.012-0.124,4.518   c-0.018-0.009-0.034-0.017-0.05-0.024c0.017,0.034,0.03,0.069,0.05,0.104c-0.225,1.331-0.019,2.498,1.228,3.288   c0.431,0.274,0.502,0.702,0.511,1.203c0.058,3.326-0.177,6.649-0.122,9.975c0.021,1.19-0.292,2.185-0.979,3.127   c-1.633,2.24-3,4.612-3.346,7.435c-0.21,1.711-0.02,3.353,0.787,4.925c0.785,1.53,2.257,2.364,3.398,3.528   c0.801,0.816,1.773,1.438,2.774,1.999c0.191,0.106,0.261,0.291,0.355,0.462c2.567,4.768,6.457,7.871,11.695,9.265   c2.391,0.637,4.804,0.837,7.2,0.082c3.433-1.082,5.516-3.487,6.497-6.888c0.127-0.44,0.307-0.544,0.72-0.553   c0.992-0.022,1.968,0.179,2.962,0.148c0.769-0.025,1.524-0.191,2.3-0.151c0.411,0.021,0.598,0.111,0.72,0.557   c0.692,2.513,2.062,4.581,4.33,5.92c2.362,1.395,4.918,1.684,7.627,1.235c5.259-0.87,9.407-3.483,12.374-7.869   c0.896-1.323,1.738-2.584,3.171-3.38c0.845-0.469,1.409-1.31,2.169-1.89c1.033-0.791,1.913-1.684,2.446-2.877   C86.427,76.858,86.24,74.693,85.621,72.499z M41.262,88.634c-0.607,0.862-1.294,1.676-2.076,2.387   c-1.498,1.358-3.842,1.28-5.271-0.143c-0.192-0.193-0.412-0.319-0.633-0.46c-2.206-1.408-2.709-3.404-0.447-5.293   c1.346-1.124,2.971-1.223,4.886-1.135c0.663,0.057,1.583,0.141,2.507,0.204c0.286,0.019,0.494,0.126,0.686,0.33   C42.037,85.711,42.202,87.296,41.262,88.634z M52.79,84.032c-0.381,0.797-0.848,0.719-1.447,0.666   c-0.228-0.021-0.329,0.084-0.354,0.284c-0.052,0.451-0.297,0.462-0.654,0.326c-0.156-0.058-0.361-0.071-0.519-0.022   c-0.427,0.135-0.758,0.197-0.846-0.408c-0.046-0.322-0.361-0.157-0.556-0.159c-0.44-0.007-0.856,0.215-1.051-0.542   c-0.12-0.468-0.646-0.847-0.553-1.463c0.127-0.837,0.758-1.431,1.029-2.196c0.054-0.149,0.21-0.136,0.34-0.146   c0.636-0.052,1.273-0.101,1.91-0.153c0.001,0.009,0.001,0.017,0.001,0.022c0.044,0,0.088-0.001,0.133,0   c1.893,0.064,1.918,0.075,2.74,1.771C53.306,82.719,53.138,83.298,52.79,84.032z M68.112,89.116   c-0.926,1.192-2.157,2.034-3.53,2.649c-0.422,0.188-0.903,0.19-1.366,0.213c-1.035,0.02-1.894-0.406-2.589-1.129   c-0.64-0.664-1.255-1.36-1.807-2.099c-1.014-1.36-0.908-2.912,0.215-4.164c0.146-0.165,0.281-0.353,0.525-0.369   c1.732-0.119,3.462-0.438,5.201-0.146c1.403,0.235,2.546,0.904,3.368,2.11C68.817,87.188,68.83,88.189,68.112,89.116z    M73.781,50.675c-0.482,1.66-0.425,1.32-1.629,0.78c-1.83-0.821-3.484-1.974-5.279-2.868c-2.908-1.451-6.002-2.403-9.137-3.208   c-2.365-0.607-4.436,0.882-4.93,3.565c-0.729,3.964-1.362,7.945-2.034,11.917c-0.035,0.207-0.134,0.4,0.196,0.52   c2.671,0.961,5.066,2.436,7.386,4.038c1.251,0.864,2.461,1.788,3.682,2.692c1.825,1.355,3.749,2.547,5.8,3.529   c0.1,0.06,0.3,0.015,0.272,0.208c-0.02,0.144-0.17,0.104-0.271,0.104c-0.126,0-0.267,0.044-0.367-0.081   c-4.34-1.521-8.442-3.595-12.64-5.453c-3.195-1.415-6.472-1.416-9.667,0c-3.655,1.624-7.247,3.385-10.97,4.852   c-0.55,0.216-1.113,0.402-1.67,0.602c-0.113,0.139-0.27,0.074-0.408,0.081c-0.097,0.006-0.235,0.021-0.234-0.126   c0.001-0.168,0.177-0.134,0.277-0.188c2.052-0.98,3.975-2.173,5.8-3.527c1.221-0.905,2.43-1.829,3.681-2.692   c2.32-1.603,4.715-3.079,7.387-4.04c0.384-0.137,0.218-0.374,0.184-0.583c-0.556-3.278-1.114-6.558-1.686-9.831   c-0.163-0.93-0.228-1.877-0.546-2.78c-0.829-2.355-2.691-3.352-5.107-2.722c-4.499,1.174-8.784,2.847-12.736,5.329   c-0.612,0.384-1.3,0.646-1.947,0.973c-0.348,0.176-0.552,0.091-0.702-0.277c-0.344-0.844-0.545-1.723-0.633-2.624   c-0.19-1.952-0.394-3.909,0.058-5.855c0.069-0.299,0.162-0.596,0.28-0.88c0.342-0.827,0.608-0.979,1.508-0.952   c7.753,0.231,15.499,0.583,23.258,0.563c7.143-0.02,14.271-0.364,21.407-0.583c0.718-0.022,1.124,0.248,1.393,0.85   c0.312,0.692,0.498,1.427,0.537,2.173C74.408,46.363,74.397,48.557,73.781,50.675z"></path></g></svg>
